# xmcd
#
# Track frame offsets:
#  150
#  20202
#  42374
#  63033
#  81202
#  101311
#  121475
#  139119
#  156851
#  178096
#  197560
#  217778
#  239417
#  255841
#  276800
#  298825
#
# Disc length: 4129 seconds
#
# Revision: 0
# Processed by: cddbd v1.4PL0 Copyright (c) Steve Scherf et al.
# Submitted via: AltoMP3_Maker 3.0
#
DISCID=e0101f10
DTITLE=mixt - Just For Lovers
DYEAR=1900
DGENRE=
TTITLE0=Standing in love 
TTITLE1=Your love 
TTITLE2=Pack your things 
TTITLE3=Never Too late
TTITLE4=Be there
TTITLE5=What about me
TTITLE6=Don't worry 
TTITLE7=It's you
TTITLE8=Let your love shine
TTITLE9=Sorry i've took so long
TTITLE10=All right
TTITLE11=Oh what it did to me
TTITLE12=Listen
TTITLE13=A so a so
TTITLE14=Shining Star
TTITLE15=Stealing Love
EXTD=
EXTT0=
EXTT1=
EXTT2=
EXTT3=
EXTT4=
EXTT5=
EXTT6=
EXTT7=
EXTT8=
EXTT9=
EXTT10=
EXTT11=
EXTT12=
EXTT13=
EXTT14=
EXTT15=
PLAYORDER=
